# xmcd
#
# Track frame offsets:
# 150
# 14191
# 29568
# 46548
# 59455
# 76979
# 92963
# 108958
# 120158
# 133357
# 142091
# 155193
# 163203
#
# Disc length: 2367 seconds
#
#
# Revision: 0
# Processed by: cddbd v1.5.1PL2 Copyright (c) Steve Scherf et al.
# Submitted via: FreeRIP 2.943 
#
DISCID=b9093d0d
DTITLE=Vários - 8 Segundos Rodeio and Show
DYEAR=2005
DGENRE=Sertanejo
TTITLE0=Tradição - Garçon Amigo
TTITLE1=João Bosco and Vinícius - Quero Provar que te Amo
TTITLE2=Ary and Boré - Vou te Amar
TTITLE3=Henrique and Heduardo - Ainda tô te Esperando
TTITLE4=Jads and Jadson - Amores Vem e Vão
TTITLE5=Marco Aurélio e Mathias - Combinação Perfeita
TTITLE6=Gilson and Júnior - Gostoso
TTITLE7=Jads and Jadson - Duzentos por Hora
TTITLE8=Henrique and Heduardo - Pra ter o seu Amor
TTITLE9=Ary and Boré - Pagode Bruto
TTITLE10=Brenno Reis and Marco Viola - O Tigrão
TTITLE11=Tradição - Chorou a Gaita
TTITLE12=Rodrigo and Rogério - Tadim Tadim
EXTD=
EXTT0=
EXTT1=
EXTT2=
EXTT3=
EXTT4=
EXTT5=
EXTT6=
EXTT7=
EXTT8=
EXTT9=
EXTT10=
EXTT11=
EXTT12=
PLAYORDER=
